<svg width="97" height="56" viewBox="0 0 97 56" fill="none" xmlns="http://www.w3.org/2000/svg">
<path d="M11.5617 26.712C9.50966 26.712 7.27766 25.236 7.27766 20.7V16.128C7.27766 13.572 8.57366 11.556 11.0217 11.556C13.9737 11.556 15.3057 13.428 15.3057 19.188C15.3057 24.696 14.1897 26.712 11.5617 26.712ZM12.8217 10.044C11.0937 10.044 8.42966 10.944 7.27766 13.104V0.144043L0.977661 1.47604V2.08804C2.45366 2.62804 2.81366 3.16804 2.81366 4.39204V26.82C2.81366 27.396 5.04566 26.604 6.34166 25.488C7.52966 26.676 9.43766 27.324 11.5977 27.324C16.6377 27.324 20.4537 24.696 20.4537 18.9C20.4537 13.212 16.8537 10.044 12.8217 10.044Z" fill="#212A42"/>
<path d="M28.9415 22.644V0.144043L22.6415 1.47604V2.08804C24.0815 2.62804 24.4415 3.16804 24.4415 4.42804V22.644C24.4415 24.48 24.3695 25.992 23.0015 26.388V27H30.3815V26.388C29.1215 26.064 28.9415 24.624 28.9415 22.644Z" fill="#212A42"/>
<path d="M37.2808 17.748C37.2808 14.292 38.7568 10.656 40.8808 10.656C42.8608 10.656 44.3368 13.212 44.3368 17.748H37.2808ZM41.0608 10.044C36.0928 10.044 32.6368 13.68 32.6368 18.756C32.6368 22.968 35.8769 27.324 40.5928 27.324C45.4169 27.324 47.5408 24.48 48.1168 22.608L47.5048 22.284C46.6048 23.976 43.7248 24.696 41.7808 24.264C39.3689 23.724 37.5688 21.888 37.2808 18.36H48.7288C48.7288 12.744 46.2808 10.044 41.0608 10.044Z" fill="#212A42"/>
<path d="M61.0198 23.292C60.6958 24.156 59.8678 25.128 58.6438 25.128C56.3038 25.128 56.3038 22.752 56.3038 22.752C56.3038 20.916 57.4918 19.224 61.0198 18.432C61.0198 18.432 61.0198 23.22 61.0198 23.292ZM67.2838 25.128C65.5198 25.128 65.5558 22.608 65.5558 22.608V17.244C65.5558 12.996 64.2598 10.044 59.5438 10.044C59.5438 10.044 57.6718 9.90004 56.0518 10.764C54.0718 11.808 53.6038 12.78 53.2438 13.392C52.8838 14.004 52.9198 14.868 53.3518 15.552C53.9998 16.488 55.2598 16.704 56.1958 16.092C57.1318 15.444 57.3838 14.184 56.7358 13.248C56.4118 12.78 55.9438 12.528 55.4038 12.456C55.1518 12.42 55.2958 11.808 56.4478 11.232C58.9318 9.93604 61.0198 11.808 61.0198 15.552V17.784C54.7198 19.368 51.6958 19.728 51.6958 23.652C51.6958 27.324 55.8358 27.324 55.8358 27.324C58.3918 27.324 60.5158 25.992 61.0558 24.408C61.4518 27.324 64.6558 27.324 64.6558 27.324C66.9238 27.324 68.5798 25.92 68.8678 24.768L68.2558 24.516C68.0398 25.128 67.2838 25.128 67.2838 25.128Z" fill="#212A42"/>
<path d="M78.8881 24.768C77.0881 24.768 76.2241 23.724 76.2241 21.708V10.98H80.3641L80.5081 10.368H76.2241V4.78804L71.7241 5.54404V10.368H69.8161L69.9241 10.98H71.7241V21.816C71.7241 26.172 73.4161 27.324 76.2601 27.324C78.6721 27.324 80.8681 25.524 81.5881 23.832L81.0481 23.508C80.7241 24.048 79.9321 24.768 78.8881 24.768Z" fill="#212A42"/>
<path d="M11.5617 54.712C9.50966 54.712 7.27766 53.236 7.27766 48.7V44.128C7.27766 41.572 8.57366 39.556 11.0217 39.556C13.9737 39.556 15.3057 41.428 15.3057 47.188C15.3057 52.696 14.1897 54.712 11.5617 54.712ZM12.8217 38.044C11.0937 38.044 8.42966 38.944 7.27766 41.104V28.144L0.977661 29.476V30.088C2.45366 30.628 2.81366 31.168 2.81366 32.392V54.82C2.81366 55.396 5.04566 54.604 6.34166 53.488C7.52966 54.676 9.43766 55.324 11.5977 55.324C16.6377 55.324 20.4537 52.696 20.4537 46.9C20.4537 41.212 16.8537 38.044 12.8217 38.044Z" fill="#212A42"/>
<path d="M31.8575 38.044C26.3855 38.044 23.2895 41.932 23.2895 46.684C23.2895 51.4 26.3855 55.324 31.8575 55.324C37.3655 55.324 40.4255 51.4 40.4255 46.684C40.4255 41.932 37.3655 38.044 31.8575 38.044ZM31.8575 54.712C29.2655 54.712 28.5815 53.2 28.5815 46.684C28.5815 40.168 29.2655 38.656 31.8575 38.656C34.4495 38.656 35.0975 40.168 35.0975 46.684C35.0975 53.2 34.4495 54.712 31.8575 54.712Z" fill="#212A42"/>
<path d="M51.8614 38.044C46.3894 38.044 43.2934 41.932 43.2934 46.684C43.2934 51.4 46.3894 55.324 51.8614 55.324C57.3694 55.324 60.4294 51.4 60.4294 46.684C60.4294 41.932 57.3694 38.044 51.8614 38.044ZM51.8614 54.712C49.2694 54.712 48.5854 53.2 48.5854 46.684C48.5854 40.168 49.2694 38.656 51.8614 38.656C54.4534 38.656 55.1014 40.168 55.1014 46.684C55.1014 53.2 54.4534 54.712 51.8614 54.712Z" fill="#212A42"/>
<path d="M68.4813 50.644V28.144L62.1813 29.476V30.088C63.6213 30.628 63.9813 31.168 63.9813 32.428V50.644C63.9813 52.48 63.9093 53.992 62.5413 54.388V55H69.9573V54.388C68.6613 54.064 68.4813 52.624 68.4813 50.644ZM78.0933 52.588C78.0933 52.588 78.0213 52.588 72.6933 45.064C77.4813 39.16 81.1533 39.052 81.8013 38.98V38.368H73.0533V38.98C77.7333 38.836 72.5853 44.056 72.5853 44.056L69.2013 47.728C69.2013 47.728 70.1373 49.168 71.2173 50.752C73.6293 54.352 73.9533 55 76.4373 55H81.5133V54.388C80.9013 54.352 79.2813 54.244 78.0933 52.588Z" fill="#212A42"/>
<path d="M92.8387 45.676L89.2027 43.408C86.0707 41.428 87.0787 38.656 89.4187 38.656C93.1267 38.656 94.2787 41.896 94.7467 43.156H95.3587V39.124C95.3587 39.124 93.5587 38.044 89.4187 38.044C85.8187 38.044 84.4507 39.844 84.4507 39.844C82.4707 42.436 83.4067 45.352 86.8987 47.476L90.5347 49.672C93.2707 51.472 92.8387 54.712 90.2827 54.712C86.0707 54.712 84.9187 50.536 84.3787 49.132H83.7667V53.668C83.7667 53.668 85.9267 55.324 90.2827 55.324C93.9547 55.324 95.3227 53.38 95.3227 53.38C97.1227 50.788 96.0427 47.656 92.8387 45.676Z" fill="#212A42"/>
</svg>
